<?xml version="1.0" encoding="UTF-8"?>
<svg xmlns="http://www.w3.org/2000/svg" xmlns:xlink="http://www.w3.org/1999/xlink" viewBox="0 0 48 48" width="48px" height="48px">
<g id="surface14846850">
<rect x="0" y="0" width="48" height="48" style="fill:rgb(92.54902%,94.117647%,94.509804%);fill-opacity:1;stroke:none;"/>
<path style=" stroke:none;fill-rule:nonzero;fill:rgb(100%,70.19608%,0%);fill-opacity:1;" d="M 39.601562 39 C 35.398438 42.101562 29.101562 44 24 44 C 16.699219 44 10.199219 41.101562 5.199219 36.601562 C 4.800781 36.199219 5.199219 35.800781 5.601562 36 C 11 39.101562 17.101562 40.898438 23.898438 40.898438 C 28.5 40.898438 34.300781 39.898438 39 37.898438 C 39.699219 37.699219 40.300781 38.5 39.601562 39 Z M 41.101562 36.898438 C 40.601562 36.199219 37.601562 36.601562 36.300781 36.699219 C 35.898438 36.699219 35.800781 36.398438 36.199219 36.101562 C 38.5 34.398438 42.398438 34.898438 42.800781 35.5 C 43.199219 36.101562 42.699219 40 40.5 41.800781 C 40.199219 42.101562 39.800781 41.898438 40 41.601562 C 40.5 40.398438 41.601562 37.601562 41.101562 36.898438 Z M 41.101562 36.898438 "/>
<path style=" stroke:none;fill-rule:nonzero;fill:rgb(21.568628%,27.843139%,30.980393%);fill-opacity:1;" d="M 36.898438 29.800781 C 35.898438 28.5 34.898438 27.398438 34.898438 24.898438 L 34.898438 16.601562 C 34.898438 13.101562 34.898438 10 32.398438 7.601562 C 30.398438 5.699219 27.101562 5 24.5 5 C 19 5 14.199219 7.199219 13 13.398438 C 12.898438 14.101562 13.398438 14.398438 13.800781 14.5 L 18.898438 15.101562 C 19.398438 15.101562 19.699219 14.601562 19.800781 14.101562 C 20.199219 12 21.898438 11 23.898438 11 C 25 11 27.101562 11.601562 27.101562 14 L 27.101562 17 C 23.898438 17 20.5 17 17.699219 18.199219 C 14.398438 19.601562 12.101562 22.5 12.101562 26.800781 C 12.101562 32.300781 15.5 35 19.898438 35 C 23.601562 35 25.800781 34.101562 28.699219 31.199219 C 29.601562 32.601562 30 33.398438 31.699219 34.898438 C 32.101562 35.101562 32.601562 35.101562 32.898438 34.800781 C 33.898438 33.898438 35.800781 32.199219 36.898438 31.300781 C 37.398438 30.898438 37.300781 30.300781 36.898438 29.800781 Z M 27 22.101562 C 27 24.101562 26.898438 29 22 29 C 19 29 19 26 19 26 C 19 21.5 23.199219 21 27 21 Z M 27 22.101562 "/>
</g>
</svg>
