<?xml version="1.0" encoding="UTF-8"?>
<svg xmlns="http://www.w3.org/2000/svg" xmlns:xlink="http://www.w3.org/1999/xlink" viewBox="0 0 50 50" width="50px" height="50px">
<g id="surface16405505">
<rect x="0" y="0" width="50" height="50" style="fill:rgb(20.392157%,28.627452%,36.862746%);fill-opacity:1;stroke:none;"/>
<path style=" stroke:none;fill-rule:nonzero;fill:rgb(100%,75.686276%,2.745098%);fill-opacity:1;" d="M 45.429688 20.917969 L 43.75 20.917969 L 43.75 20.832031 L 25 20.832031 L 25 29.167969 L 36.773438 29.167969 C 35.054688 34.019531 30.441406 37.5 25 37.5 C 18.097656 37.5 12.5 31.902344 12.5 25 C 12.5 18.097656 18.097656 12.5 25 12.5 C 28.1875 12.5 31.085938 13.703125 33.292969 15.664062 L 39.183594 9.773438 C 35.464844 6.304688 30.488281 4.167969 25 4.167969 C 13.496094 4.167969 4.167969 13.496094 4.167969 25 C 4.167969 36.503906 13.496094 45.832031 25 45.832031 C 36.503906 45.832031 45.832031 36.503906 45.832031 25 C 45.832031 23.601562 45.691406 22.238281 45.429688 20.917969 Z M 45.429688 20.917969 "/>
<path style=" stroke:none;fill-rule:nonzero;fill:rgb(100%,23.921569%,0%);fill-opacity:1;" d="M 6.570312 15.304688 L 13.414062 20.324219 C 15.265625 15.738281 19.75 12.5 25 12.5 C 28.1875 12.5 31.085938 13.703125 33.292969 15.664062 L 39.183594 9.773438 C 35.464844 6.304688 30.488281 4.167969 25 4.167969 C 16.996094 4.167969 10.058594 8.683594 6.570312 15.304688 Z M 6.570312 15.304688 "/>
<path style=" stroke:none;fill-rule:nonzero;fill:rgb(29.803923%,68.627453%,31.37255%);fill-opacity:1;" d="M 25 45.832031 C 30.382812 45.832031 35.269531 43.773438 38.96875 40.425781 L 32.519531 34.96875 C 30.429688 36.554688 27.828125 37.5 25 37.5 C 19.582031 37.5 14.980469 34.042969 13.246094 29.222656 L 6.453125 34.457031 C 9.902344 41.203125 16.902344 45.832031 25 45.832031 Z M 25 45.832031 "/>
<path style=" stroke:none;fill-rule:nonzero;fill:rgb(9.803922%,46.27451%,82.352942%);fill-opacity:1;" d="M 45.429688 20.917969 L 43.75 20.917969 L 43.75 20.832031 L 25 20.832031 L 25 29.167969 L 36.773438 29.167969 C 35.949219 31.496094 34.449219 33.507812 32.515625 34.96875 C 32.519531 34.96875 32.519531 34.96875 32.519531 34.96875 L 38.96875 40.425781 C 38.511719 40.839844 45.832031 35.417969 45.832031 25 C 45.832031 23.601562 45.691406 22.238281 45.429688 20.917969 Z M 45.429688 20.917969 "/>
</g>
</svg>
